<svg width="24" height="24" viewBox="0 0 24 24" fill="none" xmlns="http://www.w3.org/2000/svg">
<path d="M12.363 14.947C12.363 13.099 11.484 11.733 9.668 11.221C10.993 10.59 11.684 9.634 11.684 8.147C11.684 5.215 9.492 4.5 6.963 4.5H0V19.221H7.158C9.842 19.221 12.363 17.938 12.363 14.947ZM3.246 7.013H6.292C7.463 7.013 8.517 7.341 8.517 8.695C8.517 9.945 7.697 10.448 6.537 10.448H3.246V7.013ZM3.245 16.721V12.667H6.783C8.212 12.667 9.116 13.261 9.116 14.769C9.116 16.256 8.037 16.721 6.716 16.721H3.245Z" fill="black"/>
<path d="M18.7962 19.5036C21.3502 19.5036 23.0042 18.3566 23.8002 15.9186H21.2082C20.9292 16.8286 19.7792 17.3096 18.8872 17.3096C17.1662 17.3096 16.2622 16.3046 16.2622 14.5966H23.9752C24.2192 11.1786 22.3152 8.26562 18.7952 8.26562C15.5362 8.26562 13.3242 10.7076 13.3242 13.9066C13.3242 17.2266 15.4202 19.5036 18.7962 19.5036ZM18.7042 10.4776C20.1792 10.4776 20.9212 11.3416 21.0452 12.7546H16.2662C16.3632 11.3536 17.2962 10.4776 18.7042 10.4776Z" fill="black"/>
<path d="M15.667 5.27344H21.655V6.72344H15.667V5.27344Z" fill="black"/>
</svg>
