<svg width="24" height="24" viewBox="0 0 24 24" fill="none" xmlns="http://www.w3.org/2000/svg">
<path d="M21.6004 21.5967V14.5648C21.6004 11.1088 20.8564 8.46875 16.8244 8.46875C14.8804 8.46875 13.5844 9.52475 13.0564 10.5328H13.0084V8.78075H9.19238V21.5967H13.1764V15.2368C13.1764 13.5568 13.4884 11.9487 15.5524 11.9487C17.5924 11.9487 17.6164 13.8448 17.6164 15.3328V21.5728H21.6004V21.5967Z" fill="black"/>
<path d="M2.71191 8.78125H6.69591V21.5973H2.71191V8.78125Z" fill="black"/>
<path d="M4.70439 2.39844C3.43239 2.39844 2.40039 3.43044 2.40039 4.70244C2.40039 5.97444 3.43239 7.03044 4.70439 7.03044C5.97639 7.03044 7.00839 5.97444 7.00839 4.70244C7.00839 3.43044 5.97639 2.39844 4.70439 2.39844Z" fill="black"/>
</svg>
