<svg width="24" height="24" viewBox="0 0 24 24" fill="none" xmlns="http://www.w3.org/2000/svg">
<path d="M13.5373 12.0026C13.5373 15.7665 10.5069 18.8177 6.76866 18.8177C3.03042 18.8177 0 15.7665 0 12.0026C0 8.23873 3.03042 5.1875 6.76866 5.1875C10.5068 5.1875 13.5373 8.23873 13.5373 12.0026Z" fill="black"/>
<path d="M20.963 12.0012C20.963 15.5442 19.4478 18.4164 17.5787 18.4164C15.7096 18.4164 14.1943 15.5442 14.1943 12.0012C14.1943 8.45811 15.7096 5.58594 17.5787 5.58594C19.4478 5.58594 20.963 8.45811 20.963 12.0012Z" fill="black"/>
<path d="M23.9997 12.0056C23.9997 15.18 23.4668 17.7533 22.8094 17.7533C22.152 17.7533 21.6191 15.18 21.6191 12.0056C21.6191 8.83116 22.152 6.25781 22.8094 6.25781C23.4668 6.25781 23.9997 8.83116 23.9997 12.0056Z" fill="black"/>
</svg>
